<svg xmlns="http://www.w3.org/2000/svg">
    <symbol id="menu" viewBox="0 0 384.97 384.97"> 
        <g id="Menu">
            <path d="M12.03,84.212h360.909c6.641,0,12.03-5.39,12.03-12.03c0-6.641-5.39-12.03-12.03-12.03H12.03
                C5.39,60.152,0,65.541,0,72.182C0,78.823,5.39,84.212,12.03,84.212z"/>
            <path d="M372.939,180.455H12.03c-6.641,0-12.03,5.39-12.03,12.03s5.39,12.03,12.03,12.03h360.909c6.641,0,12.03-5.39,12.03-12.03
                S379.58,180.455,372.939,180.455z"/>
            <path d="M372.939,300.758H12.03c-6.641,0-12.03,5.39-12.03,12.03c0,6.641,5.39,12.03,12.03,12.03h360.909
                c6.641,0,12.03-5.39,12.03-12.03C384.97,306.147,379.58,300.758,372.939,300.758z"/>
        </g>
    </symbol>
    <symbol id="phone" viewBox="0 0 473.806 473.806">    
        <g>
            <path d="M374.456,293.506c-9.7-10.1-21.4-15.5-33.8-15.5c-12.3,0-24.1,5.3-34.2,15.4l-31.6,31.5c-2.6-1.4-5.2-2.7-7.7-4
                c-3.6-1.8-7-3.5-9.9-5.3c-29.6-18.8-56.5-43.3-82.3-75c-12.5-15.8-20.9-29.1-27-42.6c8.2-7.5,15.8-15.3,23.2-22.8
                c2.8-2.8,5.6-5.7,8.4-8.5c21-21,21-48.2,0-69.2l-27.3-27.3c-3.1-3.1-6.3-6.3-9.3-9.5c-6-6.2-12.3-12.6-18.8-18.6
                c-9.7-9.6-21.3-14.7-33.5-14.7s-24,5.1-34,14.7c-0.1,0.1-0.1,0.1-0.2,0.2l-34,34.3c-12.8,12.8-20.1,28.4-21.7,46.5
                c-2.4,29.2,6.2,56.4,12.8,74.2c16.2,43.7,40.4,84.2,76.5,127.6c43.8,52.3,96.5,93.6,156.7,122.7c23,10.9,53.7,23.8,88,26
                c2.1,0.1,4.3,0.2,6.3,0.2c23.1,0,42.5-8.3,57.7-24.8c0.1-0.2,0.3-0.3,0.4-0.5c5.2-6.3,11.2-12,17.5-18.1c4.3-4.1,8.7-8.4,13-12.9
                c9.9-10.3,15.1-22.3,15.1-34.6c0-12.4-5.3-24.3-15.4-34.3L374.456,293.506z M410.256,398.806
                C410.156,398.806,410.156,398.906,410.256,398.806c-3.9,4.2-7.9,8-12.2,12.2c-6.5,6.2-13.1,12.7-19.3,20
                c-10.1,10.8-22,15.9-37.6,15.9c-1.5,0-3.1,0-4.6-0.1c-29.7-1.9-57.3-13.5-78-23.4c-56.6-27.4-106.3-66.3-147.6-115.6
                c-34.1-41.1-56.9-79.1-72-119.9c-9.3-24.9-12.7-44.3-11.2-62.6c1-11.7,5.5-21.4,13.8-29.7l34.1-34.1c4.9-4.6,10.1-7.1,15.2-7.1
                c6.3,0,11.4,3.8,14.6,7c0.1,0.1,0.2,0.2,0.3,0.3c6.1,5.7,11.9,11.6,18,17.9c3.1,3.2,6.3,6.4,9.5,9.7l27.3,27.3
                c10.6,10.6,10.6,20.4,0,31c-2.9,2.9-5.7,5.8-8.6,8.6c-8.4,8.6-16.4,16.6-25.1,24.4c-0.2,0.2-0.4,0.3-0.5,0.5
                c-8.6,8.6-7,17-5.2,22.7c0.1,0.3,0.2,0.6,0.3,0.9c7.1,17.2,17.1,33.4,32.3,52.7l0.1,0.1c27.6,34,56.7,60.5,88.8,80.8
                c4.1,2.6,8.3,4.7,12.3,6.7c3.6,1.8,7,3.5,9.9,5.3c0.4,0.2,0.8,0.5,1.2,0.7c3.4,1.7,6.6,2.5,9.9,2.5c8.3,0,13.5-5.2,15.2-6.9
                l34.2-34.2c3.4-3.4,8.8-7.5,15.1-7.5c6.2,0,11.3,3.9,14.4,7.3c0.1,0.1,0.1,0.1,0.2,0.2l55.1,55.1
                C420.456,377.706,420.456,388.206,410.256,398.806z"/>
            <path d="M256.056,112.706c26.2,4.4,50,16.8,69,35.8s31.3,42.8,35.8,69c1.1,6.6,6.8,11.2,13.3,11.2c0.8,0,1.5-0.1,2.3-0.2
                c7.4-1.2,12.3-8.2,11.1-15.6c-5.4-31.7-20.4-60.6-43.3-83.5s-51.8-37.9-83.5-43.3c-7.4-1.2-14.3,3.7-15.6,11
                S248.656,111.506,256.056,112.706z"/>
            <path d="M473.256,209.006c-8.9-52.2-33.5-99.7-71.3-137.5s-85.3-62.4-137.5-71.3c-7.3-1.3-14.2,3.7-15.5,11
                c-1.2,7.4,3.7,14.3,11.1,15.6c46.6,7.9,89.1,30,122.9,63.7c33.8,33.8,55.8,76.3,63.7,122.9c1.1,6.6,6.8,11.2,13.3,11.2
                c0.8,0,1.5-0.1,2.3-0.2C469.556,223.306,474.556,216.306,473.256,209.006z"/>
	    </g>    
    </symbol>
    <symbol id="phone-1" viewBox="0 0 512 512">
        <path d="M391,480c-19.52,0-46.94-7.06-88-30-49.93-28-88.55-53.85-138.21-103.38C116.91,298.77,93.61,267.79,61,208.45c-36.84-67-30.56-102.12-23.54-117.13C45.82,73.38,58.16,62.65,74.11,52A176.3,176.3,0,0,1,102.75,36.8c1-.43,1.93-.84,2.76-1.21,4.95-2.23,12.45-5.6,21.95-2,6.34,2.38,12,7.25,20.86,16,18.17,17.92,43,57.83,52.16,77.43,6.15,13.21,10.22,21.93,10.23,31.71,0,11.45-5.76,20.28-12.75,29.81-1.31,1.79-2.61,3.5-3.87,5.16-7.61,10-9.28,12.89-8.18,18.05,2.23,10.37,18.86,41.24,46.19,68.51s57.31,42.85,67.72,45.07c5.38,1.15,8.33-.59,18.65-8.47,1.48-1.13,3-2.3,4.59-3.47,10.66-7.93,19.08-13.54,30.26-13.54h.06c9.73,0,18.06,4.22,31.86,11.18,18,9.08,59.11,33.59,77.14,51.78,8.77,8.84,13.66,14.48,16.05,20.81,3.6,9.53.21,17-2,22-.37.83-.78,1.74-1.21,2.75a176.49,176.49,0,0,1-15.29,28.58c-10.63,15.9-21.4,28.21-39.38,36.58A67.42,67.42,0,0,1,391,480Z"/>
    </symbol>
    <symbol id="left-arrow" viewBox="0 0 492 492">
        <g>
		    <path d="M198.608,246.104L382.664,62.04c5.068-5.056,7.856-11.816,7.856-19.024c0-7.212-2.788-13.968-7.856-19.032l-16.128-16.12
			C361.476,2.792,354.712,0,347.504,0s-13.964,2.792-19.028,7.864L109.328,227.008c-5.084,5.08-7.868,11.868-7.848,19.084
			c-0.02,7.248,2.76,14.028,7.848,19.112l218.944,218.932c5.064,5.072,11.82,7.864,19.032,7.864c7.208,0,13.964-2.792,19.032-7.864
			l16.124-16.12c10.492-10.492,10.492-27.572,0-38.06L198.608,246.104z"/>
	    </g>
    </symbol>
    <symbol id="right-arrow" viewBox="0 0 492.004 492.004">
        <g>
            <path d="M382.678,226.804L163.73,7.86C158.666,2.792,151.906,0,144.698,0s-13.968,2.792-19.032,7.86l-16.124,16.12
                c-10.492,10.504-10.492,27.576,0,38.064L293.398,245.9l-184.06,184.06c-5.064,5.068-7.86,11.824-7.86,19.028
                c0,7.212,2.796,13.968,7.86,19.04l16.124,16.116c5.068,5.068,11.824,7.86,19.032,7.86s13.968-2.792,19.032-7.86L382.678,265
                c5.076-5.084,7.864-11.872,7.848-19.088C390.542,238.668,387.754,231.884,382.678,226.804z"/>
	    </g>
    </symbol>
    <symbol id="plus" viewBox="0 0 330 330">
        <g>
            <path d="M281.672,48.328C250.508,17.163,209.073,0,164.999,0C120.927,0,79.492,17.163,48.328,48.328
                c-64.333,64.334-64.333,169.011,0,233.345C79.492,312.837,120.927,330,165,330c44.073,0,85.508-17.163,116.672-48.328
                C346.005,217.339,346.005,112.661,281.672,48.328z M260.46,260.46C234.961,285.957,201.06,300,165,300
                c-36.06,0-69.961-14.043-95.46-39.54c-52.636-52.637-52.636-138.282,0-190.919C95.039,44.042,128.94,30,164.999,30
                c36.06,0,69.961,14.042,95.46,39.54C313.095,122.177,313.095,207.823,260.46,260.46z"/>
            <path d="M254.999,150H180V75c0-8.284-6.716-15-15-15s-15,6.716-15,15v75H75c-8.284,0-15,6.716-15,15s6.716,15,15,15h75v75
                c0,8.284,6.716,15,15,15s15-6.716,15-15v-75h74.999c8.284,0,15-6.716,15-15S263.284,150,254.999,150z"/>
        </g>    
    </symbol>
    <symbol id="minus" viewBox="0 0 251.882 251.882">
        <path d="M215.037,36.846c-49.129-49.128-129.063-49.128-178.191,0c-49.127,49.127-49.127,129.063,0,178.19
		c24.564,24.564,56.83,36.846,89.096,36.846s64.531-12.282,89.096-36.846C264.164,165.909,264.164,85.973,215.037,36.846z
		 M49.574,202.309c-42.109-42.109-42.109-110.626,0-152.735c21.055-21.054,48.711-31.582,76.367-31.582s55.313,10.527,76.367,31.582
		c42.109,42.109,42.109,110.626,0,152.735C160.199,244.417,91.683,244.417,49.574,202.309z"/>
        <path d="M194.823,116.941H57.059c-4.971,0-9,4.029-9,9s4.029,9,9,9h137.764c4.971,0,9-4.029,9-9S199.794,116.941,194.823,116.941z"
            />
    </symbol>
    <symbol id="message" viewBox="0 0 60 60">  
        <g>
            <polygon points="32.062,42.977 60,58.343 60,27.527 	"/>
            <path d="M29.989,41.837l0.01-0.005L8,29.701v-0.024l22,12.13l24-13.232v-0.015l5.12-2.831L54,20.962V6.984H40.598l-8.056-6
                c-1.385-1.289-3.698-1.29-5.085,0.001l-8.055,5.999H6v13.978L0.813,25.79L29.989,41.837z M8,8.984h8.717h26.566H52V19.1v8.293
                L30,39.524L8,27.393V19.1V8.984z"/>
            <polygon points="0,59.984 58.835,59.984 0,27.624 	"/>
            <path d="M27,13.984h6c0.553,0,1-0.447,1-1s-0.447-1-1-1h-6c-0.553,0-1,0.447-1,1S26.447,13.984,27,13.984z"/>
            <path d="M42,26.984h-7c-0.553,0-1,0.447-1,1s0.447,1,1,1h7c0.553,0,1-0.447,1-1S42.553,26.984,42,26.984z"/>
            <path d="M17,20.984h5c0.553,0,1-0.447,1-1s-0.447-1-1-1h-5c-0.553,0-1,0.447-1,1S16.447,20.984,17,20.984z"/>
            <path d="M29,19.984c0,0.553,0.447,1,1,1h8c0.553,0,1-0.447,1-1s-0.447-1-1-1h-8C29.447,18.984,29,19.431,29,19.984z"/>
            <path d="M26,20.984c0.26,0,0.52-0.11,0.71-0.29c0.18-0.19,0.29-0.45,0.29-0.71c0-0.271-0.11-0.521-0.29-0.71
                c-0.38-0.37-1.05-0.37-1.42,0c-0.181,0.189-0.29,0.439-0.29,0.71c0,0.26,0.109,0.52,0.29,0.71
                C25.479,20.873,25.74,20.984,26,20.984z"/>
            <path d="M31,26.984H21c-0.553,0-1,0.447-1,1s0.447,1,1,1h10c0.553,0,1-0.447,1-1S31.553,26.984,31,26.984z"/>
            <path d="M17,28.984c0.26,0,0.52-0.11,0.71-0.29c0.18-0.19,0.29-0.45,0.29-0.71s-0.11-0.521-0.29-0.71c-0.38-0.37-1.04-0.37-1.42,0
                c-0.181,0.18-0.29,0.439-0.29,0.71c0,0.27,0.109,0.52,0.29,0.71C16.479,28.883,16.729,28.984,17,28.984z"/>
            <path d="M42,20.984c0.26,0,0.52-0.11,0.71-0.29c0.18-0.19,0.29-0.45,0.29-0.71s-0.11-0.521-0.29-0.71c-0.38-0.37-1.05-0.37-1.42,0
                c-0.181,0.189-0.29,0.439-0.29,0.71c0,0.26,0.109,0.52,0.29,0.71C41.479,20.873,41.74,20.984,42,20.984z"/>
        </g>  
    </symbol>
    <symbol id="lamp" viewBox="0 0 486 486">
        <g>
            <path id="XMLID_49_" d="M298.4,424.7v14.2c0,11.3-8.3,20.7-19.1,22.3l-3.5,12.9c-1.9,7-8.2,11.9-15.5,11.9h-34.7
                c-7.3,0-13.6-4.9-15.5-11.9l-3.4-12.9c-10.9-1.7-19.2-11-19.2-22.4v-14.2c0-7.6,6.1-13.7,13.7-13.7h83.5
                C292.3,411,298.4,417.1,298.4,424.7z M362.7,233.3c0,32.3-12.8,61.6-33.6,83.1c-15.8,16.4-26,37.3-29.4,59.6
                c-1.5,9.6-9.8,16.7-19.6,16.7h-74.3c-9.7,0-18.1-7-19.5-16.6c-3.5-22.3-13.8-43.5-29.6-59.8c-20.4-21.2-33.1-50-33.4-81.7
                c-0.7-66.6,52.3-120.5,118.9-121C308.7,113.1,362.7,166.9,362.7,233.3z M256.5,160.8c0-7.4-6-13.5-13.5-13.5
                c-47.6,0-86.4,38.7-86.4,86.4c0,7.4,6,13.5,13.5,13.5c7.4,0,13.5-6,13.5-13.5c0-32.8,26.7-59.4,59.4-59.4
                C250.5,174.3,256.5,168.3,256.5,160.8z M243,74.3c7.4,0,13.5-6,13.5-13.5V13.5c0-7.4-6-13.5-13.5-13.5s-13.5,6-13.5,13.5v47.3
                C229.5,68.3,235.6,74.3,243,74.3z M84.1,233.2c0-7.4-6-13.5-13.5-13.5H23.3c-7.4,0-13.5,6-13.5,13.5c0,7.4,6,13.5,13.5,13.5h47.3
                C78.1,246.7,84.1,240.7,84.1,233.2z M462.7,219.7h-47.3c-7.4,0-13.5,6-13.5,13.5c0,7.4,6,13.5,13.5,13.5h47.3
                c7.4,0,13.5-6,13.5-13.5C476.2,225.8,470.2,219.7,462.7,219.7z M111.6,345.6l-33.5,33.5c-5.3,5.3-5.3,13.8,0,19.1
                c2.6,2.6,6.1,3.9,9.5,3.9s6.9-1.3,9.5-3.9l33.5-33.5c5.3-5.3,5.3-13.8,0-19.1C125.4,340.3,116.8,340.3,111.6,345.6z M364.9,124.8
                c3.4,0,6.9-1.3,9.5-3.9l33.5-33.5c5.3-5.3,5.3-13.8,0-19.1c-5.3-5.3-13.8-5.3-19.1,0l-33.5,33.5c-5.3,5.3-5.3,13.8,0,19.1
                C358,123.5,361.4,124.8,364.9,124.8z M111.6,120.8c2.6,2.6,6.1,3.9,9.5,3.9s6.9-1.3,9.5-3.9c5.3-5.3,5.3-13.8,0-19.1L97.1,68.2
                c-5.3-5.3-13.8-5.3-19.1,0c-5.3,5.3-5.3,13.8,0,19.1L111.6,120.8z M374.4,345.6c-5.3-5.3-13.8-5.3-19.1,0c-5.3,5.3-5.3,13.8,0,19.1
                l33.5,33.5c2.6,2.6,6.1,3.9,9.5,3.9s6.9-1.3,9.5-3.9c5.3-5.3,5.3-13.8,0-19.1L374.4,345.6z"/>
        </g>
    </symbol>
    <symbol id="location" viewBox="0 0 12 16.001"> 
        <path id="Path_12135" data-name="Path 12135" class="cls-1" d="M-6-14a6,6,0,0,0-6,6c0,2.419.843,3.095,5.384,9.678a.75.75,0,0,0,1.233,0C-.844-4.906,0-5.581,0-8A6,6,0,0,0-6-14Zm0,8.472a2.5,2.5,0,0,1-2.5-2.5,2.5,2.5,0,0,1,2.5-2.5,2.5,2.5,0,0,1,2.5,2.5A2.5,2.5,0,0,1-6-5.528Z" transform="translate(12 14)"/>
    </symbol>
    <symbol id="american-flag" viewBox="0 0 512 512"> 
        <circle style="fill:#F0F0F0;" cx="256" cy="256" r="256"/>
        <g>
            <path style="fill:#D80027;" d="M244.87,256H512c0-23.106-3.08-45.49-8.819-66.783H244.87V256z"/>
            <path style="fill:#D80027;" d="M244.87,122.435h229.556c-15.671-25.572-35.708-48.175-59.07-66.783H244.87V122.435z"/>
            <path style="fill:#D80027;" d="M256,512c60.249,0,115.626-20.824,159.356-55.652H96.644C140.374,491.176,195.751,512,256,512z"/>
            <path style="fill:#D80027;" d="M37.574,389.565h436.852c12.581-20.529,22.338-42.969,28.755-66.783H8.819
                C15.236,346.596,24.993,369.036,37.574,389.565z"/>
        </g>
        <path style="fill:#0052B4;" d="M118.584,39.978h23.329l-21.7,15.765l8.289,25.509l-21.699-15.765L85.104,81.252l7.16-22.037
            C73.158,75.13,56.412,93.776,42.612,114.552h7.475l-13.813,10.035c-2.152,3.59-4.216,7.237-6.194,10.938l6.596,20.301l-12.306-8.941
            c-3.059,6.481-5.857,13.108-8.372,19.873l7.267,22.368h26.822l-21.7,15.765l8.289,25.509l-21.699-15.765l-12.998,9.444
            C0.678,234.537,0,245.189,0,256h256c0-141.384,0-158.052,0-256C205.428,0,158.285,14.67,118.584,39.978z M128.502,230.4
            l-21.699-15.765L85.104,230.4l8.289-25.509l-21.7-15.765h26.822l8.288-25.509l8.288,25.509h26.822l-21.7,15.765L128.502,230.4z
            M120.213,130.317l8.289,25.509l-21.699-15.765l-21.699,15.765l8.289-25.509l-21.7-15.765h26.822l8.288-25.509l8.288,25.509h26.822
            L120.213,130.317z M220.328,230.4l-21.699-15.765L176.93,230.4l8.289-25.509l-21.7-15.765h26.822l8.288-25.509l8.288,25.509h26.822
            l-21.7,15.765L220.328,230.4z M212.039,130.317l8.289,25.509l-21.699-15.765l-21.699,15.765l8.289-25.509l-21.7-15.765h26.822
            l8.288-25.509l8.288,25.509h26.822L212.039,130.317z M212.039,55.743l8.289,25.509l-21.699-15.765L176.93,81.252l8.289-25.509
            l-21.7-15.765h26.822l8.288-25.509l8.288,25.509h26.822L212.039,55.743z"/>
    </symbol>
    <symbol id="soudi-flag" viewBox="0 0 512 512"> 
        <circle style="fill:#6DA544;" cx="256" cy="256" r="256"/>
        <g>
            <path style="fill:#F0F0F0;" d="M144.696,306.087c0,18.441,14.95,33.391,33.391,33.391h100.174
                c0,15.368,12.458,27.826,27.826,27.826h33.391c15.368,0,27.826-12.458,27.826-27.826v-33.391H144.696z"/>
            <path style="fill:#F0F0F0;" d="M370.087,144.696v77.913c0,12.275-9.986,22.261-22.261,22.261v33.391
                c30.687,0,55.652-24.966,55.652-55.652v-77.913H370.087z"/>
            <path style="fill:#F0F0F0;" d="M130.783,222.609c0,12.275-9.986,22.261-22.261,22.261v33.391c30.687,0,55.652-24.966,55.652-55.652
                v-77.913h-33.391V222.609z"/>
            <rect x="320" y="144.696" style="fill:#F0F0F0;" width="33.391" height="77.913"/>
            <path style="fill:#F0F0F0;" d="M269.913,189.217c0,3.069-2.497,5.565-5.565,5.565s-5.565-2.497-5.565-5.565v-44.522h-33.391v44.522
                c0,3.069-2.497,5.565-5.565,5.565s-5.565-2.497-5.565-5.565v-44.522H180.87v44.522c0,21.481,17.476,38.957,38.957,38.957
                c8.273,0,15.945-2.6,22.261-7.016c6.315,4.415,13.988,7.016,22.261,7.016c1.666,0,3.304-0.117,4.915-0.322
                c-2.366,9.749-11.146,17.017-21.611,17.017v33.391c30.687,0,55.652-24.966,55.652-55.652v-33.391v-44.522h-33.391V189.217z"/>
            <rect x="180.87" y="244.87" style="fill:#F0F0F0;" width="50.087" height="33.391"/>
    </symbol>
     <!--  -->
    <!-- <symbol id="law" viewBox="0 0 24 24"> 
        <path fill-rule="evenodd" d="M12.75 2.75a.75.75 0 00-1.5 0V4.5H9.276a1.75 1.75 0 00-.985.303L6.596 5.957A.25.25 0 016.455 6H2.353a.75.75 0 100 1.5H3.93L.563 15.18a.762.762 0 00.21.88c.08.064.161.125.309.221.186.121.452.278.792.433.68.311 1.662.62 2.876.62a6.919 6.919 0 002.876-.62c.34-.155.606-.312.792-.433.15-.097.23-.158.31-.223a.75.75 0 00.209-.878L5.569 7.5h.886c.351 0 .694-.106.984-.303l1.696-1.154A.25.25 0 019.275 6h1.975v14.5H6.763a.75.75 0 000 1.5h10.474a.75.75 0 000-1.5H12.75V6h1.974c.05 0 .1.015.14.043l1.697 1.154c.29.197.633.303.984.303h.886l-3.368 7.68a.75.75 0 00.23.896c.012.009 0 0 .002 0a3.154 3.154 0 00.31.206c.185.112.45.256.79.4a7.343 7.343 0 002.855.568 7.343 7.343 0 002.856-.569c.338-.143.604-.287.79-.399a3.5 3.5 0 00.31-.206.75.75 0 00.23-.896L20.07 7.5h1.578a.75.75 0 000-1.5h-4.102a.25.25 0 01-.14-.043l-1.697-1.154a1.75 1.75 0 00-.984-.303H12.75V2.75zM2.193 15.198a5.418 5.418 0 002.557.635 5.418 5.418 0 002.557-.635L4.75 9.368l-2.557 5.83zm14.51-.024c.082.04.174.083.275.126.53.223 1.305.45 2.272.45a5.846 5.846 0 002.547-.576L19.25 9.367l-2.547 5.807z"/>
    </symbol>  -->
    
</svg>